HIERARCHY
ROOT Hips
{
	OFFSET 0.000000 0.000000 0.000000
	CHANNELS 6 Xposition Yposition Zposition Zrotation Yrotation Xrotation 
	JOINT LHipJoint
	{
		OFFSET 0.000000 0.000000 0.000000
		CHANNELS 3 Zrotation Yrotation Xrotation
		JOINT LeftUpLeg
		{
			OFFSET 1.363060 -1.794630 0.839290
			CHANNELS 3 Zrotation Yrotation Xrotation
			JOINT LeftLeg
			{
				OFFSET 2.448110 -6.726130 0.000000
				CHANNELS 3 Zrotation Yrotation Xrotation
				JOINT LeftFoot
				{
					OFFSET 2.562200 -7.039590 0.000000
					CHANNELS 3 Zrotation Yrotation Xrotation
					JOINT LeftToeBase
					{
						OFFSET 0.157640 -0.433110 2.322550
						CHANNELS 3 Zrotation Yrotation Xrotation
						End Site
						{
							OFFSET 0.000000 0.000000 0.000000
						}
					}
				}
			}
		}
	}
	JOINT RHipJoint
	{
		OFFSET 0.000000 0.000000 0.000000
		CHANNELS 3 Zrotation Yrotation Xrotation
		JOINT RightUpLeg
		{
			OFFSET -1.305520 -1.794630 0.839290
			CHANNELS 3 Zrotation Yrotation Xrotation
			JOINT RightLeg
			{
				OFFSET -2.542530 -6.985550 0.000000
				CHANNELS 3 Zrotation Yrotation Xrotation
				JOINT RightFoot
				{
					OFFSET -2.568260 -7.056230 0.000000
					CHANNELS 3 Zrotation Yrotation Xrotation
					JOINT RightToeBase
					{
						OFFSET -0.164730 -0.452590 2.363150
						CHANNELS 3 Zrotation Yrotation Xrotation
						End Site
						{
							OFFSET 0.000000 0.000000 0.000000
						}
					}
				}
			}
		}
	}
	JOINT LowerBack
	{
		OFFSET 0.000000 0.000000 0.000000
		CHANNELS 3 Zrotation Yrotation Xrotation
		JOINT Spine
		{
			OFFSET 0.028270 2.035590 -0.193380
			CHANNELS 3 Zrotation Yrotation Xrotation
			JOINT Spine1
			{
				OFFSET 0.056720 2.048850 -0.042750
				CHANNELS 3 Zrotation Yrotation Xrotation
				JOINT Neck
				{
					OFFSET 0.000000 0.000000 0.000000
					CHANNELS 3 Zrotation Yrotation Xrotation
					JOINT Neck1
					{
						OFFSET -0.054170 1.746240 0.172020
						CHANNELS 3 Zrotation Yrotation Xrotation
						JOINT Head
						{
							OFFSET 0.104070 1.761360 -0.123970
							CHANNELS 3 Zrotation Yrotation Xrotation
							End Site
							{
								OFFSET 0.000000 0.000000 0.000000
							}
						}
					}
				}
				JOINT LeftShoulder
				{
					OFFSET 0.000000 0.000000 0.000000
					CHANNELS 3 Zrotation Yrotation Xrotation
					JOINT LeftArm
					{
						OFFSET 3.362410 1.200890 -0.311210
						CHANNELS 3 Zrotation Yrotation Xrotation
						JOINT LeftForeArm
						{
							OFFSET 4.983000 -0.000000 -0.000000
							CHANNELS 3 Zrotation Yrotation Xrotation
							JOINT LeftHand
							{
								OFFSET 3.483560 -0.000000 -0.000000
								CHANNELS 3 Zrotation Yrotation Xrotation
								JOINT LeftFingerBase
								{
									OFFSET 0.000000 0.000000 0.000000
									CHANNELS 3 Zrotation Yrotation Xrotation
									JOINT LeftHandIndex1
									{
										OFFSET 0.715260 -0.000000 -0.000000
										CHANNELS 3 Zrotation Yrotation Xrotation
										End Site
										{
											OFFSET 0.000000 0.000000 0.000000
										}
									}
								}
								JOINT LThumb
								{
									OFFSET 0.000000 0.000000 0.000000
									CHANNELS 3 Zrotation Yrotation Xrotation
									End Site
									{
										OFFSET 0.000000 0.000000 0.000000
									}
								}
							}
						}
					}
				}
				JOINT RightShoulder
				{
					OFFSET 0.000000 0.000000 0.000000
					CHANNELS 3 Zrotation Yrotation Xrotation
					JOINT RightArm
					{
						OFFSET -3.136600 1.374050 -0.404650
						CHANNELS 3 Zrotation Yrotation Xrotation
						JOINT RightForeArm
						{
							OFFSET -5.241900 -0.000000 -0.000000
							CHANNELS 3 Zrotation Yrotation Xrotation
							JOINT RightHand
							{
								OFFSET -3.444170 -0.000000 -0.000000
								CHANNELS 3 Zrotation Yrotation Xrotation
								JOINT RightFingerBase
								{
									OFFSET 0.000000 0.000000 0.000000
									CHANNELS 3 Zrotation Yrotation Xrotation
									JOINT RightHandIndex1
									{
										OFFSET -0.622530 -0.000000 -0.000000
										CHANNELS 3 Zrotation Yrotation Xrotation
										End Site
										{
											OFFSET 0.000000 0.000000 0.000000
										}
									}
								}
								JOINT RThumb
								{
									OFFSET 0.000000 0.000000 0.000000
									CHANNELS 3 Zrotation Yrotation Xrotation
									End Site
									{
										OFFSET 0.000000 0.000000 0.000000
									}
								}
							}
						}
					}
				}
			}
		}
	}
}
MOTION
Frames: 10
Frame Time: 0.008333
0.075743 17.168717 -0.543232 158.366292 -82.619070 -149.147923 -10.324310 -0.510929 1.570804 -9.350317 0.006141 -47.718271 -0.053852 2.823505 54.484055 2.646086 14.723805 -6.946065 0.459500 -0.000001 -33.474700 9.186560 -2.242374 -0.021080 8.636402 -5.309256 -6.120591 2.386137 -0.460745 17.068125 -0.479957 0.082354 -9.139825 0.013001 0.000000 -70.513000 -4.111905 -1.167087 -2.649570 -1.697762 -1.013394 -3.485249 -6.770418 -1.113050 0.113103 11.909838 -9.392764 -10.195408 -3.517381 -0.246185 -0.718764 0.000000 0.000000 0.000000 2.136192 12.081681 2.568603 -60.096052 21.136991 30.256571 -2.930973 -37.514415 -0.027476 -4.108711 12.632659 -0.451876 -0.078711 -0.141826 0.000000 0.000000 0.000000 0.000000 0.000000 0.000000 0.000000 19.345582 -3.002722 0.924243 64.230569 15.784957 37.962148 1.284709 60.632441 0.007172 -1.802874 8.768581 -0.148266 0.087469 -0.295850 -0.000000 0.000000 0.000000 0.000000 0.000000 0.000000 0.000000 
-0.005264 17.200477 -0.563741 159.151983 -82.249359 -149.890018 -10.229613 -0.520125 1.567608 -9.509839 0.366920 -47.926612 -0.203060 2.716266 52.390296 2.582761 14.304856 -6.361401 0.612900 0.000000 -33.967801 9.225371 -2.278552 -0.053689 8.406538 -5.561696 -5.268652 2.413748 -0.371318 15.662710 -0.338868 0.637379 -8.082824 -0.023000 0.000000 -70.651000 -4.242461 -1.019369 -2.615847 -1.714622 -0.853951 -3.467622 -6.670877 -0.951768 0.184292 11.772843 -9.476892 -10.195124 -3.424376 -0.238116 -0.718616 0.000000 0.000000 0.000000 2.113107 12.401027 2.542925 -59.420032 21.757860 31.348325 -2.900490 -38.022082 -0.028244 -4.339766 12.744734 -0.482608 -0.076386 -0.148829 0.000000 0.000000 0.000000 0.000000 0.000000 0.000000 0.000000 18.881918 -3.034405 0.995149 63.642329 17.476105 39.566350 1.208615 62.419284 0.007621 -1.627821 8.597775 -0.131962 0.087845 -0.304633 -0.000000 0.000000 0.000000 0.000000 0.000000 0.000000 0.000000 
-0.087664 17.227599 -0.582914 160.109138 -81.841748 -150.798083 -10.138096 -0.521572 1.565681 -9.658564 0.768642 -48.083400 -0.366469 2.603408 50.212463 2.514684 13.847103 -5.909350 0.724301 0.000000 -34.360199 9.260560 -2.314126 -0.067167 8.189405 -5.721444 -4.432393 2.438799 -0.285181 14.325618 -0.209627 1.167264 -7.106705 -0.038500 -0.000001 -70.762200 -4.356830 -0.858304 -2.605163 -1.726812 -0.682747 -3.453697 -6.559638 -0.779195 0.261386 11.623814 -9.519313 -10.185585 -3.324367 -0.229596 -0.715829 0.000000 0.000000 0.000000 2.102258 12.737212 2.519215 -58.785744 22.365355 32.360354 -2.873168 -38.516743 -0.029036 -4.573923 12.855259 -0.514039 -0.074066 -0.155483 0.000000 0.000000 0.000000 0.000000 0.000000 0.000000 0.000000 18.364482 -3.021033 1.078848 63.024860 19.211241 41.077551 1.132766 64.249719 0.008433 -1.345485 8.440603 -0.107972 0.086432 -0.313365 -0.000000 0.000000 0.000000 0.000000 0.000000 0.000000 0.000000 
-0.171734 17.250158 -0.600727 161.209738 -81.403102 -151.838464 -10.050927 -0.517799 1.569957 -9.789810 1.201766 -48.209410 -0.541052 2.484622 47.968910 2.442063 13.354272 -5.560036 0.803200 -0.000000 -34.693701 9.289249 -2.350128 -0.059326 7.997496 -5.786675 -3.618369 2.462091 -0.200943 13.053067 -0.093641 1.658907 -6.216911 -0.037700 0.000001 -70.866300 -4.450572 -0.687467 -2.625207 -1.733171 -0.503804 -3.443122 -6.436393 -0.599301 0.350996 11.468468 -9.535616 -10.171100 -3.217925 -0.220645 -0.711420 0.000000 0.000000 0.000000 2.101710 13.094101 2.494563 -58.195170 22.961483 33.283176 -2.848956 -38.998657 -0.029841 -4.813067 12.955333 -0.546171 -0.071735 -0.161791 0.000000 0.000000 0.000000 0.000000 0.000000 0.000000 0.000000 17.808528 -2.983298 1.177955 62.354338 21.023613 42.513693 1.056584 66.121479 0.009644 -0.961082 8.301159 -0.077199 0.083213 -0.321958 -0.000000 0.000000 0.000000 0.000000 0.000000 0.000000 0.000000 
-0.257791 17.268379 -0.617170 162.408325 -80.944582 -152.960595 -9.969276 -0.511137 1.585871 -9.898558 1.650680 -48.322516 -0.722191 2.359414 45.678859 2.365596 12.836727 -5.264769 0.863400 0.000000 -35.022499 9.309979 -2.387927 -0.030531 7.838498 -5.769649 -2.832200 2.484596 -0.117497 11.837812 0.009310 2.105736 -5.408384 -0.024801 -0.000000 -71.012300 -4.521360 -0.511446 -2.681425 -1.733401 -0.322027 -3.437174 -6.303098 -0.417124 0.451565 11.307591 -9.509488 -10.146472 -3.107010 -0.211508 -0.703893 0.000000 0.000000 0.000000 2.111960 13.470847 2.470003 -57.645021 23.552924 34.115983 -2.828202 -39.468185 -0.030645 -5.053758 13.035694 -0.578001 -0.069446 -0.167715 0.000000 0.000000 0.000000 0.000000 0.000000 0.000000 0.000000 17.217860 -2.906377 1.289627 61.627972 22.886886 43.825562 0.978749 68.038208 0.011324 -0.449749 8.181891 -0.037745 0.077359 -0.330464 0.000000 0.000000 0.000000 0.000000 0.000000 0.000000 0.000000 
-0.345940 17.282361 -0.632207 163.670369 -80.479177 -154.129375 -9.894717 -0.503844 1.616058 -9.979469 2.101187 -48.436619 -0.904800 2.228448 43.366645 2.285637 12.304875 -4.974176 0.917100 0.000000 -35.383801 9.321355 -2.427508 0.014986 7.718635 -5.690093 -2.070966 2.507797 -0.033510 10.668403 0.100252 2.506900 -4.677267 -0.003600 0.000000 -71.175900 -4.566973 -0.335209 -2.771262 -1.725963 -0.142312 -3.428825 -6.155812 -0.236995 0.587346 11.155106 -9.519999 -10.138237 -2.989961 -0.201692 -0.700551 0.000000 0.000000 0.000000 2.128079 13.898071 2.437019 -57.134484 24.091706 34.883856 -2.808510 -39.915123 -0.031417 -5.296577 13.091423 -0.609230 -0.067075 -0.173275 0.000000 0.000000 0.000000 0.000000 0.000000 0.000000 0.000000 16.632502 -2.882399 1.423508 60.798962 24.944948 45.105577 0.899298 69.967578 0.013230 0.079944 8.094202 0.002097 0.070982 -0.338699 0.000000 0.000000 0.000000 0.000000 0.000000 0.000000 0.000000 
-0.436200 17.292511 -0.646075 164.919502 -80.022481 -155.271452 -9.827668 -0.496903 1.664335 -10.035500 2.530408 -48.553358 -1.083347 2.091033 41.047670 2.203582 11.778134 -4.635651 0.977000 0.000000 -35.828100 9.325986 -2.470080 0.071715 7.630160 -5.584024 -1.334667 2.532230 0.050893 9.535331 0.181949 2.871986 -4.005591 0.023500 0.000001 -71.422200 -4.591905 -0.163487 -2.893191 -1.712926 0.030758 -3.425559 -6.001436 -0.064232 0.726542 10.995787 -9.473860 -10.110531 -2.871214 -0.192052 -0.691494 0.000000 0.000000 0.000000 2.153237 14.318415 2.405419 -56.660425 24.656059 35.547219 -2.792742 -40.358484 -0.032163 -5.531132 13.119143 -0.638458 -0.064832 -0.178448 0.000000 0.000000 0.000000 0.000000 0.000000 0.000000 0.000000 16.017152 -2.809975 1.564862 59.913456 27.015357 46.181031 0.815279 71.928078 0.015439 0.701877 8.025549 0.048217 0.061766 -0.347002 -0.000000 0.000000 0.000000 0.000000 0.000000 0.000000 0.000000 
-0.528377 17.298959 -0.658795 166.115530 -79.588639 -156.353152 -9.768940 -0.491127 1.730889 -10.066771 2.920775 -48.670043 -1.253319 1.947958 38.739874 2.120169 11.270308 -4.214696 1.050000 0.000000 -36.375500 9.325585 -2.514860 0.131172 7.566545 -5.486351 -0.616552 2.558768 0.135708 8.429509 0.257182 3.214579 -3.382033 0.055700 0.000000 -71.727799 -4.599955 -0.000769 -3.037511 -1.694312 0.193303 -3.421699 -5.837826 0.097703 0.882436 10.837105 -9.423665 -10.081006 -2.749658 -0.182245 -0.681710 0.000000 0.000000 0.000000 2.184536 14.750785 2.370792 -56.216612 25.207252 36.140428 -2.778999 -40.790400 -0.032860 -5.754370 13.118633 -0.665083 -0.062657 -0.183253 0.000000 0.000000 0.000000 0.000000 0.000000 0.000000 0.000000 15.395871 -2.749481 1.716976 58.946591 29.179737 47.094106 0.727063 73.887613 0.017702 1.330037 7.980992 0.094521 0.051284 -0.355327 -0.000000 0.000000 0.000000 0.000000 0.000000 0.000000 0.000000 
-0.622368 17.301866 -0.670577 167.217557 -79.190351 -157.339471 -9.718721 -0.486187 1.815453 -10.077138 3.255645 -48.776767 -1.411461 1.799670 36.455959 2.036384 10.794049 -3.693358 1.138900 0.000000 -37.034900 9.323272 -2.561561 0.185328 7.515268 -5.433057 0.089301 2.587732 0.220279 7.346676 0.328988 3.553042 -2.795935 0.093300 -0.000000 -72.073700 -4.597073 0.149786 -3.195018 -1.671452 0.342780 -3.418452 -5.666852 0.246131 1.041816 10.671578 -9.352584 -10.039635 -2.625815 -0.172453 -0.668463 0.000000 0.000000 0.000000 2.221683 15.164479 2.336076 -55.800226 25.777281 36.653011 -2.768219 -41.219178 -0.033515 -5.960774 13.094154 -0.688407 -0.060634 -0.187733 0.000000 0.000000 0.000000 0.000000 0.000000 0.000000 0.000000 14.753471 -2.682868 1.872172 57.915262 31.380265 47.795228 0.634264 75.833139 0.019864 1.938726 7.952590 0.139310 0.039623 -0.363817 -0.000000 0.000000 0.000000 0.000000 0.000000 0.000000 0.000000 
-0.717808 17.301308 -0.681569 168.193977 -78.836153 -158.208200 -9.676708 -0.481678 1.915943 -10.070450 3.523604 -48.858171 -1.556134 1.646551 34.203708 1.953107 10.357944 -3.071871 1.242701 0.000000 -37.797201 9.322363 -2.609259 0.226267 7.462421 -5.455133 0.787812 2.619044 0.303273 6.288881 0.400223 3.907999 -2.240389 0.137900 0.000000 -72.437199 -4.589502 0.286133 -3.354719 -1.645534 0.477888 -3.415250 -5.489198 0.379795 1.197337 10.494041 -9.259557 -9.984357 -2.499201 -0.162662 -0.651275 0.000000 0.000000 0.000000 2.265426 15.548497 2.303267 -55.405233 26.370076 37.100840 -2.760487 -41.644981 -0.034131 -6.146593 13.050670 -0.708228 -0.058818 -0.191919 0.000000 0.000000 0.000000 0.000000 0.000000 0.000000 0.000000 14.079305 -2.607972 2.023051 56.829797 33.585874 48.262715 0.537842 77.744512 0.021779 2.496937 7.938589 0.180588 0.027168 -0.372629 -0.000000 0.000000 0.000000 0.000000 0.000000 0.000000 0.000000 
